<?xml version="1.0" encoding="UTF-8"?>
<svg viewBox="0 0 1200 1200" xmlns="http://www.w3.org/2000/svg">
 <rect x="-120" y="-120" width="1440" height="1440" fill="#fff"/>
 <path d="m824.45 241.04h-448.89c-35.52 0-70.281 14.359-95.219 39.297s-39.297 59.703-39.297 95.219v448.89c0 35.52 14.359 70.281 39.297 95.219s59.703 39.297 95.219 39.297h448.89c35.52 0 70.281-14.359 95.219-39.297s39.297-59.703 39.297-95.219v-448.89c0-35.52-14.359-70.281-39.297-95.219-24.938-24.941-59.699-39.297-95.219-39.297zm-8.3125 205.55-224.45 314.38c-7.5586 10.578-19.648 17.383-32.496 18.895h-3.7773c-12.09 0-23.426-4.5352-31.738-12.848l-134.52-135.27c-11.336-11.336-15.113-27.961-11.336-43.074 4.5352-15.113 15.871-27.207 31.738-31.738 15.113-4.5352 31.738 0 43.074 11.336l97.488 97.488 193.46-271.3c9.0703-12.848 24.938-20.402 40.809-18.895 15.871 1.5117 30.23 11.336 36.273 25.695 6.0508 15.109 4.5391 32.492-4.5273 45.336z"/>
</svg>
